{"title":"The Protector 2 AkA Tom yum goong 2 (2013) 720p Blu-Ray x264 [Du","uid":11193132,"size":1050133868,"categoryP":"video","categoryS":"hd___movies","magnet":"?xt=urn:btih:ae3c1ab6f875a332da51f4ad4956ae2f880e0524&amp;dn=The+Protector+2+AkA+Tom+yum+goong+2+%282013%29+720p+Blu-Ray+x264+%5BDu&amp;tr=udp%3A%2F%2Ftracker.openbittorrent.com%3A80&amp;tr=udp%3A%2F%2Fopen.demonii.com%3A1337&amp;tr=udp%3A%2F%2Ftracker.coppersurfer.tk%3A6969&amp;tr=udp%3A%2F%2Fexodus.desync.com%3A6969","seeders":31,"leechers":8,"uploader":"inovai","files":3,"time":1413032780,"description":"The Protector 2 AkA Tom yum goong 2 (2013) 720p Blu-Ray x264 [Dual-Audio][Thai 5.1 + Hindi 2.0] - Mafiaking - TeamTNT\n\nCover:\n &lt;a href=&quot;\nhttp://forum.primetimeshow.in/viewtopic.php?f=7&amp;t=768&quot; rel=&quot;nofollow&quot; target=&quot;_NEW&quot;&gt;\nhttp://forum.primetimeshow.in/viewtopic.php?f=7&amp;t=768&lt;/a&gt;\n\nExtreme Seeded=-\n\nHindi Line Audio.\n\n\nRatings: 5.3/10\n\nGENRE: Action\n\nScreenshots:\n &lt;a href=&quot;\nhttp://m.primetimeshow.in/share-012B_54390DE2.html&quot; rel=&quot;nofollow&quot; target=&quot;_NEW&quot;&gt;\nhttp://m.primetimeshow.in/share-012B_54390DE2.html&lt;/a&gt;\n &lt;a href=&quot;\nhttp://m.primetimeshow.in/share-4633_54390DE2.html&quot; rel=&quot;nofollow&quot; target=&quot;_NEW&quot;&gt;\nhttp://m.primetimeshow.in/share-4633_54390DE2.html&lt;/a&gt;\n &lt;a href=&quot;\nhttp://m.primetimeshow.in/share-B1F3_54390DE2.html&quot; rel=&quot;nofollow&quot; target=&quot;_NEW&quot;&gt;\nhttp://m.primetimeshow.in/share-B1F3_54390DE2.html&lt;/a&gt;\n &lt;a href=&quot;\nhttp://m.primetimeshow.in/share-9464_54390DE2.html&quot; rel=&quot;nofollow&quot; target=&quot;_NEW&quot;&gt;\nhttp://m.primetimeshow.in/share-9464_54390DE2.html&lt;/a&gt;\n &lt;a href=&quot;\nhttp://m.primetimeshow.in/share-6780_54390DE2.html&quot; rel=&quot;nofollow&quot; target=&quot;_NEW&quot;&gt;\nhttp://m.primetimeshow.in/share-6780_54390DE2.html&lt;/a&gt;\n\n\nGeneral\nUnique ID : 253690116303746581317578443526194326796 (0xBEDAF06CB01DEE2092490051CF63ED0C)\nComplete name : The Protector 2 AkA Tom yum goong 2 (2013) 720p Blu-Ray x264 [Dual-Audio][Thai 5.1 + Hindi 2.0] - Mafiaking - TeamTNT.mkv\nFormat : Matroska\nFormat version : Version 4 / Version 2\nFile size : 989 MiB\nDuration : 1h 44mn\nOverall bit rate : 1 321 Kbps\nMovie name : The Protector 2 AkA Tom yum goong 2 (2013) 720p Blu-Ray x264 [Dual-Audio][Thai 5.1 + Hindi 2.0] - Mafiaking - TeamTNT\nEncoded date : UTC 2014-10-10 14:59:29\nWriting application : mkvmerge v7.0.0 ('Where We Going') 64bit built on Jun 9 2014 15:16:27\nWriting library : libebml v1.3.0 + libmatroska v1.4.1\n\nVideo\nID : 1\nFormat : AVC\nFormat/Info : Advanced Video Codec\nFormat profile : &lt;a class=&quot;__cf_email__&quot; href=&quot;/cdn-cgi/l/email-protection&quot; data-cfemail=&quot;94dcfdf3fcd4d8a0baa5&quot;&gt;[email&amp;#160;protected]&lt;/a&gt;&lt;script cf-hash='f9e31' type=&quot;text/javascript&quot;&gt;\n/* &lt;![CDATA[ */!function(){try{var t=&quot;currentScript&quot;in document?document.currentScript:function(){for(var t=document.getElementsByTagName(&quot;script&quot;),e=t.length;e--;)if(t[e].getAttribute(&quot;cf-hash&quot;))return t[e]}();if(t&amp;&amp;t.previousSibling){var e,r,n,i,c=t.previousSibling,a=c.getAttribute(&quot;data-cfemail&quot;);if(a){for(e=&quot;&quot;,r=parseInt(a.substr(0,2),16),n=2;a.length-n;n+=2)i=parseInt(a.substr(n,2),16)^r,e+=String.fromCharCode(i);e=document.createTextNode(e),c.parentNode.replaceChild(e,c)}}}catch(u){}}();/* ]]&gt; */&lt;/script&gt;\nFormat settings, CABAC : Yes\nFormat settings, ReFrames : 4 frames\nCodec ID : V_MPEG4/ISO/AVC\nDuration : 1h 44mn\nBit rate : 1 000 Kbps\nWidth : 1 280 pixels\nHeight : 544 pixels\nDisplay aspect ratio : 2.35:1\nFrame rate mode : Constant\nFrame rate : 23.976 fps\nColor space : YUV\nChroma subsampling : 4:2:0\nBit depth : 8 bits\nScan type : Progressive\nBits/(Pixel*Frame) : 0.060\nStream size : 730 MiB (74%)\nTitle : Mafiaking\nLanguage : English\nDefault : Yes\nForced : No\n\nAudio #1\nID : 2\nFormat : AC-3\nFormat/Info : Audio Coding 3\nMode extension : CM (complete main)\nFormat settings, Endianness : Big\nCodec ID : A_AC3\nDuration : 1h 44mn\nBit rate mode : Constant\nBit rate : 128 Kbps\nChannel(s) : 2 channels\nChannel positions : Front: L R\nSampling rate : 48.0 KHz\nBit depth : 16 bits\nCompression mode : Lossy\nStream size : 95.9 MiB (10%)\nTitle : Mafiaking\nLanguage : Hindi\nDefault : Yes\nForced : No\n\nAudio #2\nID : 3\nFormat : AC-3\nFormat/Info : Audio Coding 3\nMode extension : CM (complete main)\nFormat settings, Endianness : Big\nCodec ID : A_AC3\nDuration : 1h 44mn\nBit rate mode : Constant\nBit rate : 192 Kbps\nChannel(s) : 6 channels\nChannel positions : Front: L C R, Side: L R, LFE\nSampling rate : 48.0 KHz\nBit depth : 16 bits\nCompression mode : Lossy\nStream size : 144 MiB (15%)\nTitle : Mafiaking\nLanguage : Thai\nDefault : No\nForced : No\n\nSAMPLE WITH IN TORRENT\n\nSpecial Thanks To Usman Ansari For Hindi Audio!\n\nThanks to Mafiaking - TeamTNT!!\n\nSeed n ENjoy!","torrent":{"xt":"urn:btih:ae3c1ab6f875a332da51f4ad4956ae2f880e0524","amp;dn":"The+Protector+2+AkA+Tom+yum+goong+2+%282013%29+720p+Blu-Ray+x264+%5BDu","amp;tr":["udp%3A%2F%2Ftracker.openbittorrent.com%3A80","udp%3A%2F%2Fopen.demonii.com%3A1337","udp%3A%2F%2Ftracker.coppersurfer.tk%3A6969","udp%3A%2F%2Fexodus.desync.com%3A6969"],"infoHash":"ae3c1ab6f875a332da51f4ad4956ae2f880e0524","infoHashBuffer":{"type":"Buffer","data":[174,60,26,182,248,117,163,50,218,81,244,173,73,86,174,47,136,14,5,36]},"announce":[],"urlList":[]}}